name analog
datacolumns 19
datarows 42
range 0.0 0.0205
endheader
time	ground_force_vx	ground_force_vy	ground_force_vz	ground_force_px	ground_force_py	ground_force_pz	l_ground_force_vx	l_ground_force_vy	l_ground_force_vz	l_ground_force_px	l_ground_force_py	l_ground_force_pz	ground_torque_x	ground_torque_y	ground_torque_z	l_ground_torque_x	l_ground_torque_y	l_ground_torque_z
0.0	-0.0	-0.0	-0.0	8.1500883102417	27.029298782348636	-528.7464599609375	-9.338013648986816	-47.52172470092773	-368.3365783691406	-0.0	-0.0	-0.0	-0.0	-0.0	-0.0	107655.453125	16786.986328125	-8646.2578125
0.0005	-0.0	-0.0	-0.0	8.0831880569458	27.10015869140625	-532.7874145507812	-9.505959510803224	-47.24748992919922	-366.9401245117188	-0.0	-0.0	-0.0	-0.0	-0.0	-0.0	106655.96875	16737.490234375	-8822.7822265625
0.001	-0.0	-0.0	-0.0	8.662299156188965	27.719554901123047	-532.7359619140625	-9.84689712524414	-46.62931442260742	-362.41937255859375	-0.0	-0.0	-0.0	-0.0	-0.0	-0.0	105690.8828125	16996.2421875	-8738.5517578125
0.0015	-0.0	-0.0	-0.0	8.849431991577148	27.54568862915039	-535.7042846679688	-9.9310941696167	-46.43024444580078	-359.25927734375	-0.0	-0.0	-0.0	-0.0	-0.0	-0.0	104921.21875	16813.337890625	-8652.6025390625
0.002	-0.0	-0.0	-0.0	9.247662544250488	27.567182540893555	-537.5399169921875	-10.201740264892578	-45.3178596496582	-355.8204345703125	-0.0	-0.0	-0.0	-0.0	-0.0	-0.0	103893.921875	17149.54296875	-8685.1142578125
0.0025	-0.0	-0.0	-0.0	9.09521484375	27.56681251525879	-541.845458984375	-10.294824600219728	-45.12367630004883	-351.595703125	-0.0	-0.0	-0.0	-0.0	-0.0	-0.0	102378.109375	17187.1953125	-8824.6171875
0.003	-0.0	-0.0	-0.0	8.975850105285645	27.46479797363281	-545.2931518554688	-10.62796688079834	-44.4796257019043	-347.4740905761719	-0.0	-0.0	-0.0	-0.0	-0.0	-0.0	101917.546875	16946.564453125	-8800.861328125
0.0035	-0.0	-0.0	-0.0	9.05812168121338	27.873027801513672	-546.1144409179688	-10.978877067565918	-43.34478378295898	-343.5819091796875	-0.0	-0.0	-0.0	-0.0	-0.0	-0.0	100792.8203125	16976.083984375	-8740.0458984375
0.004	-0.0	-0.0	-0.0	9.261595726013184	28.088289260864254	-549.2593383789062	-10.645294189453123	-42.575225830078125	-340.7059936523437	-0.0	-0.0	-0.0	-0.0	-0.0	-0.0	99515.9609375	16780.548828125	-8793.333984375
0.0045000000000000005	-0.0	-0.0	-0.0	9.184650421142578	28.063989639282227	-551.4096069335938	-10.379161834716797	-42.121185302734375	-335.932861328125	-0.0	-0.0	-0.0	-0.0	-0.0	-0.0	98487.875	16664.046875	-8801.412109375
0.005	-0.0	-0.0	-0.0	8.921051025390625	27.662012100219727	-557.671142578125	-10.90328598022461	-41.342655181884766	-333.7088317871094	-0.0	-0.0	-0.0	-0.0	-0.0	-0.0	97771.015625	16592.49609375	-8862.22265625
0.0055	-0.0	-0.0	-0.0	8.932782173156738	28.14958000183105	-560.1898803710938	-11.092876434326172	-40.79258728027344	-330.58319091796875	-0.0	-0.0	-0.0	-0.0	-0.0	-0.0	96766.2578125	16507.119140625	-8967.3603515625
0.006	-0.0	-0.0	-0.0	9.560848236083984	27.81633949279785	-561.1118774414062	-11.165709495544434	-40.1706428527832	-325.8206787109375	-0.0	-0.0	-0.0	-0.0	-0.0	-0.0	96110.765625	16673.958984375	-9032.0498046875
0.006500000000000001	-0.0	-0.0	-0.0	9.103240966796877	27.98318099975586	-565.7943115234375	-11.173670768737791	-39.22257232666016	-324.6957092285156	-0.0	-0.0	-0.0	-0.0	-0.0	-0.0	95211.203125	16453.455078125	-9006.1142578125
0.007	-0.0	-0.0	-0.0	9.430224418640137	27.470783233642575	-567.8543090820312	-11.709823608398438	-39.21482849121094	-320.961181640625	-0.0	-0.0	-0.0	-0.0	-0.0	-0.0	94370.03125	16468.392578125	-8952.310546875
0.0075	-0.0	-0.0	-0.0	9.106765747070312	27.55222511291504	-567.603515625	-11.624879837036133	-38.857791900634766	-320.4618835449219	-0.0	-0.0	-0.0	-0.0	-0.0	-0.0	93801.9296875	16713.2734375	-9096.59375
0.008	-0.0	-0.0	-0.0	9.356346130371094	27.1883544921875	-571.1912841796875	-11.621112823486328	-38.1660385131836	-320.4482421875	-0.0	-0.0	-0.0	-0.0	-0.0	-0.0	93370.46875	16597.173828125	-9069.2099609375
0.0085	-0.0	-0.0	-0.0	9.734576225280762	26.928003311157227	-574.2987060546875	-11.883581161499023	-37.8162727355957	-315.61865234375	-0.0	-0.0	-0.0	-0.0	-0.0	-0.0	93012.203125	16644.435546875	-9180.5703125
0.009000000000000001	-0.0	-0.0	-0.0	9.909293174743652	26.93122291564941	-577.4903564453125	-11.635449409484863	-37.7169303894043	-315.6048278808594	-0.0	-0.0	-0.0	-0.0	-0.0	-0.0	92302.1015625	16993.033203125	-9216.1044921875
0.0095	-0.0	-0.0	-0.0	9.816577911376951	26.98600196838379	-580.3153076171875	-12.58984661102295	-37.44486999511719	-313.8733825683594	-0.0	-0.0	-0.0	-0.0	-0.0	-0.0	92452.109375	16670.001953125	-9272.4609375
0.01	-0.0	-0.0	-0.0	10.001602172851562	26.722427368164062	-585.8990478515625	-12.228235244750977	-37.26830291748047	-311.7651672363281	-0.0	-0.0	-0.0	-0.0	-0.0	-0.0	91410.8125	17252.80859375	-9155.8447265625
0.0105	-0.0	-0.0	-0.0	10.084067344665527	27.072702407836918	-586.6578369140625	-11.90085220336914	-36.915077209472656	-309.6707458496094	-0.0	-0.0	-0.0	-0.0	-0.0	-0.0	90724.46875	16874.48828125	-9154.3642578125
0.011	-0.0	-0.0	-0.0	10.593385696411133	26.405242919921875	-589.5469970703125	-12.242088317871094	-37.0850715637207	-306.5815734863281	-0.0	-0.0	-0.0	-0.0	-0.0	-0.0	89875.953125	17078.681640625	-9015.3193359375
0.0115	-0.0	-0.0	-0.0	10.95078945159912	26.48119354248047	-593.3048095703125	-12.406389236450195	-36.75161743164063	-303.5031433105469	-0.0	-0.0	-0.0	-0.0	-0.0	-0.0	89380.9375	17351.23046875	-9095.35546875
0.012	-0.0	-0.0	-0.0	10.551767349243164	27.255224227905277	-595.7899169921875	-12.41303253173828	-36.751495361328125	-301.03240966796875	-0.0	-0.0	-0.0	-0.0	-0.0	-0.0	88836.703125	17199.26953125	-9237.1826171875
0.0125	-0.0	-0.0	-0.0	11.428109169006348	26.64693832397461	-597.2635498046875	-12.058311462402344	-37.09510803222656	-299.8837280273437	-0.0	-0.0	-0.0	-0.0	-0.0	-0.0	87935.828125	17498.876953125	-9125.9208984375
0.013000000000000001	-0.0	-0.0	-0.0	11.772812843322754	27.425416946411133	-599.4052124023438	-12.22350025177002	-37.1649284362793	-296.01959228515625	-0.0	-0.0	-0.0	-0.0	-0.0	-0.0	86904.1953125	17208.107421875	-9181.2138671875
0.0135	-0.0	-0.0	-0.0	11.61202907562256	26.920310974121094	-601.8650512695312	-12.156434059143066	-37.00679016113281	-293.63653564453125	-0.0	-0.0	-0.0	-0.0	-0.0	-0.0	86099.2109375	17373.595703125	-9208.7880859375
0.014	-0.0	-0.0	-0.0	12.308197975158691	27.0842399597168	-606.3421630859375	-11.633021354675291	-36.84200286865234	-292.914794921875	-0.0	-0.0	-0.0	-0.0	-0.0	-0.0	85361.1328125	17464.53515625	-9036.4951171875
0.0145	-0.0	-0.0	-0.0	13.10278034210205	27.268325805664062	-606.3878173828125	-12.49072551727295	-37.34556198120117	-291.19244384765625	-0.0	-0.0	-0.0	-0.0	-0.0	-0.0	84793.5859375	17476.755859375	-9011.44921875
0.015	-0.0	-0.0	-0.0	12.8463134765625	27.354793548583984	-608.4637451171875	-12.259332656860352	-37.42264175415039	-289.0862121582031	-0.0	-0.0	-0.0	-0.0	-0.0	-0.0	84402.390625	17607.216796875	-9064.7958984375
0.0155	-0.0	-0.0	-0.0	13.016727447509766	27.617090225219727	-609.9312133789062	-12.599725723266602	-36.74460220336914	-287.3188171386719	-0.0	-0.0	-0.0	-0.0	-0.0	-0.0	83761.109375	18160.400390625	-9067.6953125
0.016	-0.0	-0.0	-0.0	12.505236625671388	26.925256729125977	-612.808837890625	-12.94626808166504	-37.18617630004883	-283.8711242675781	-0.0	-0.0	-0.0	-0.0	-0.0	-0.0	83451.03125	18198.615234375	-9098.611328125
0.0165	-0.0	-0.0	-0.0	13.101113319396973	26.823122024536133	-614.5127563476562	-12.605008125305176	-36.83282852172852	-282.81280517578125	-0.0	-0.0	-0.0	-0.0	-0.0	-0.0	82514.6875	18388.322265625	-9066.7529296875
0.017	-0.0	-0.0	-0.0	12.821452140808104	26.380115509033203	-613.8759765625	-12.68564224243164	-36.99118423461914	-281.3956298828125	-0.0	-0.0	-0.0	-0.0	-0.0	-0.0	82064.21875	18503.537109375	-9155.81640625
0.0175	-0.0	-0.0	-0.0	12.311050415039062	26.28614044189453	-617.290771484375	-12.946632385253906	-36.20677185058594	-277.91455078125	-0.0	-0.0	-0.0	-0.0	-0.0	-0.0	81599.2421875	18387.1328125	-9330.3330078125
0.018000000000000002	-0.0	-0.0	-0.0	12.395530700683594	25.67664337158203	-619.0682373046875	-13.296649932861328	-35.94196701049805	-276.1593322753906	-0.0	-0.0	-0.0	-0.0	-0.0	-0.0	80733.1328125	18643.171875	-9211.9375
0.0185	-0.0	-0.0	-0.0	11.512763023376465	25.48208999633789	-620.835693359375	-12.249380111694336	-36.28327560424805	-274.7249450683594	-0.0	-0.0	-0.0	-0.0	-0.0	-0.0	79643.4375	18531.10546875	-9241.8193359375
0.019	-0.0	-0.0	-0.0	11.4166841506958	24.85834503173828	-621.9498291015625	-12.604098320007324	-35.51007461547852	-271.9891357421875	-0.0	-0.0	-0.0	-0.0	-0.0	-0.0	78927.8359375	18859.828125	-9124.0458984375
0.0195	-0.0	-0.0	-0.0	11.160038948059082	24.254365921020508	-623.74169921875	-13.215598106384276	-34.63359451293945	-268.86492919921875	-0.0	-0.0	-0.0	-0.0	-0.0	-0.0	78222.375	18653.732421875	-9184.384765625
0.02	-0.0	-0.0	-0.0	11.325493812561035	24.16493225097656	-624.1109619140625	-13.12244987487793	-34.45217514038086	-266.74298095703125	-0.0	-0.0	-0.0	-0.0	-0.0	-0.0	77752.1015625	18835.734375	-9099.0390625
0.0205	-0.0	-0.0	-0.0	11.140920639038086	24.24762344360352	-625.5145874023438	-12.68564224243164	-34.447654724121094	-266.4114074707031	-0.0	-0.0	-0.0	-0.0	-0.0	-0.0	77421.5	18968.798828125	-9070.470703125
